<mxfile host="app.diagrams.net" modified="2022-01-28T16:03:24.907Z" agent="5.0 (Windows NT 10.0; Win64; x64) AppleWebKit/537.36 (KHTML, like Gecko) Chrome/97.0.4692.99 Safari/537.36" etag="0VtGImx-6CPVZsbQ3XH9" version="16.4.11" type="github">
  <diagram id="XUIQ0owQ226IPFAhlH9e" name="Page-1">
    <mxGraphModel dx="774" dy="488" grid="1" gridSize="10" guides="1" tooltips="1" connect="1" arrows="1" fold="1" page="1" pageScale="1" pageWidth="827" pageHeight="1169" math="0" shadow="0">
      <root>
        <mxCell id="0" />
        <mxCell id="1" parent="0" />
        <mxCell id="vDryYQNX-0aa7Fd8NcH6-1" value="&lt;font style=&quot;font-size: 14px&quot;&gt;Server&lt;/font&gt;" style="rounded=1;whiteSpace=wrap;html=1;" vertex="1" parent="1">
          <mxGeometry x="90" y="70" width="120" height="60" as="geometry" />
        </mxCell>
        <mxCell id="vDryYQNX-0aa7Fd8NcH6-22" value="" style="edgeStyle=orthogonalEdgeStyle;rounded=0;orthogonalLoop=1;jettySize=auto;html=1;fontSize=14;" edge="1" parent="1" source="vDryYQNX-0aa7Fd8NcH6-3" target="vDryYQNX-0aa7Fd8NcH6-4">
          <mxGeometry relative="1" as="geometry" />
        </mxCell>
        <mxCell id="vDryYQNX-0aa7Fd8NcH6-3" value="&lt;font style=&quot;font-size: 14px&quot;&gt;Client&lt;/font&gt;" style="rounded=1;whiteSpace=wrap;html=1;" vertex="1" parent="1">
          <mxGeometry x="510" y="150" width="120" height="60" as="geometry" />
        </mxCell>
        <mxCell id="vDryYQNX-0aa7Fd8NcH6-23" value="" style="edgeStyle=orthogonalEdgeStyle;rounded=0;orthogonalLoop=1;jettySize=auto;html=1;fontSize=14;" edge="1" parent="1" source="vDryYQNX-0aa7Fd8NcH6-4" target="vDryYQNX-0aa7Fd8NcH6-7">
          <mxGeometry relative="1" as="geometry" />
        </mxCell>
        <mxCell id="vDryYQNX-0aa7Fd8NcH6-4" value="&lt;font style=&quot;font-size: 14px&quot;&gt;message&lt;/font&gt;" style="shape=parallelogram;perimeter=parallelogramPerimeter;whiteSpace=wrap;html=1;fixedSize=1;" vertex="1" parent="1">
          <mxGeometry x="510" y="290" width="120" height="60" as="geometry" />
        </mxCell>
        <mxCell id="vDryYQNX-0aa7Fd8NcH6-15" value="" style="edgeStyle=orthogonalEdgeStyle;rounded=0;orthogonalLoop=1;jettySize=auto;html=1;fontSize=14;" edge="1" parent="1" source="vDryYQNX-0aa7Fd8NcH6-6" target="vDryYQNX-0aa7Fd8NcH6-9">
          <mxGeometry relative="1" as="geometry" />
        </mxCell>
        <mxCell id="vDryYQNX-0aa7Fd8NcH6-6" value="&lt;font style=&quot;font-size: 14px&quot;&gt;message&lt;/font&gt;" style="shape=parallelogram;perimeter=parallelogramPerimeter;whiteSpace=wrap;html=1;fixedSize=1;" vertex="1" parent="1">
          <mxGeometry x="90" y="582.5" width="120" height="60" as="geometry" />
        </mxCell>
        <mxCell id="vDryYQNX-0aa7Fd8NcH6-35" value="" style="edgeStyle=orthogonalEdgeStyle;rounded=0;orthogonalLoop=1;jettySize=auto;html=1;fontSize=14;" edge="1" parent="1" source="vDryYQNX-0aa7Fd8NcH6-7" target="vDryYQNX-0aa7Fd8NcH6-34">
          <mxGeometry relative="1" as="geometry" />
        </mxCell>
        <mxCell id="vDryYQNX-0aa7Fd8NcH6-7" value="Mã hóa AES" style="rounded=0;whiteSpace=wrap;html=1;fontSize=14;" vertex="1" parent="1">
          <mxGeometry x="510" y="380" width="120" height="60" as="geometry" />
        </mxCell>
        <mxCell id="vDryYQNX-0aa7Fd8NcH6-31" value="" style="edgeStyle=orthogonalEdgeStyle;rounded=0;orthogonalLoop=1;jettySize=auto;html=1;fontSize=14;" edge="1" parent="1" source="vDryYQNX-0aa7Fd8NcH6-8" target="vDryYQNX-0aa7Fd8NcH6-30">
          <mxGeometry relative="1" as="geometry" />
        </mxCell>
        <mxCell id="vDryYQNX-0aa7Fd8NcH6-8" value="Giải mã AES" style="rounded=0;whiteSpace=wrap;html=1;fontSize=14;" vertex="1" parent="1">
          <mxGeometry x="90" y="290" width="120" height="60" as="geometry" />
        </mxCell>
        <mxCell id="vDryYQNX-0aa7Fd8NcH6-9" value="Mã hóa AES" style="rounded=0;whiteSpace=wrap;html=1;fontSize=14;" vertex="1" parent="1">
          <mxGeometry x="90" y="672.5" width="120" height="60" as="geometry" />
        </mxCell>
        <mxCell id="vDryYQNX-0aa7Fd8NcH6-10" value="Giải mã AES" style="rounded=0;whiteSpace=wrap;html=1;fontSize=14;" vertex="1" parent="1">
          <mxGeometry x="505" y="707.5" width="120" height="60" as="geometry" />
        </mxCell>
        <mxCell id="vDryYQNX-0aa7Fd8NcH6-33" value="" style="edgeStyle=orthogonalEdgeStyle;rounded=0;orthogonalLoop=1;jettySize=auto;html=1;fontSize=14;" edge="1" parent="1" source="vDryYQNX-0aa7Fd8NcH6-16">
          <mxGeometry relative="1" as="geometry">
            <mxPoint x="150" y="580" as="targetPoint" />
          </mxGeometry>
        </mxCell>
        <mxCell id="vDryYQNX-0aa7Fd8NcH6-16" value="Hiển thị tin nhắn" style="rounded=0;whiteSpace=wrap;html=1;fontSize=14;" vertex="1" parent="1">
          <mxGeometry x="90" y="502.5" width="120" height="60" as="geometry" />
        </mxCell>
        <mxCell id="vDryYQNX-0aa7Fd8NcH6-17" value="Hiển thị tin nhắn" style="rounded=0;whiteSpace=wrap;html=1;fontSize=14;" vertex="1" parent="1">
          <mxGeometry x="505" y="792.5" width="120" height="60" as="geometry" />
        </mxCell>
        <mxCell id="vDryYQNX-0aa7Fd8NcH6-20" value="" style="endArrow=classic;html=1;rounded=0;fontSize=14;exitX=0;exitY=0.5;exitDx=0;exitDy=0;entryX=1;entryY=0.5;entryDx=0;entryDy=0;" edge="1" parent="1" source="vDryYQNX-0aa7Fd8NcH6-34" target="vDryYQNX-0aa7Fd8NcH6-36">
          <mxGeometry width="50" height="50" relative="1" as="geometry">
            <mxPoint x="550" y="450" as="sourcePoint" />
            <mxPoint x="310" y="250" as="targetPoint" />
            <Array as="points">
              <mxPoint x="340" y="500" />
              <mxPoint x="340" y="460" />
              <mxPoint x="340" y="220" />
            </Array>
          </mxGeometry>
        </mxCell>
        <mxCell id="vDryYQNX-0aa7Fd8NcH6-25" value="" style="edgeStyle=orthogonalEdgeStyle;rounded=0;orthogonalLoop=1;jettySize=auto;html=1;fontSize=14;entryX=0.5;entryY=0;entryDx=0;entryDy=0;" edge="1" parent="1" source="vDryYQNX-0aa7Fd8NcH6-24" target="vDryYQNX-0aa7Fd8NcH6-10">
          <mxGeometry relative="1" as="geometry">
            <mxPoint x="565" y="700" as="targetPoint" />
          </mxGeometry>
        </mxCell>
        <mxCell id="vDryYQNX-0aa7Fd8NcH6-28" value="" style="edgeStyle=orthogonalEdgeStyle;rounded=0;orthogonalLoop=1;jettySize=auto;html=1;fontSize=14;" edge="1" parent="1" source="vDryYQNX-0aa7Fd8NcH6-24" target="vDryYQNX-0aa7Fd8NcH6-26">
          <mxGeometry relative="1" as="geometry" />
        </mxCell>
        <mxCell id="vDryYQNX-0aa7Fd8NcH6-24" value="&lt;span&gt;message=&quot;quit&quot;&lt;/span&gt;" style="rhombus;whiteSpace=wrap;html=1;fontSize=14;" vertex="1" parent="1">
          <mxGeometry x="500" y="600" width="130" height="80" as="geometry" />
        </mxCell>
        <mxCell id="vDryYQNX-0aa7Fd8NcH6-26" value="Kết thúc" style="ellipse;whiteSpace=wrap;html=1;fontSize=14;" vertex="1" parent="1">
          <mxGeometry x="675" y="600" width="120" height="80" as="geometry" />
        </mxCell>
        <mxCell id="vDryYQNX-0aa7Fd8NcH6-29" value="Kết thúc" style="ellipse;whiteSpace=wrap;html=1;fontSize=14;" vertex="1" parent="1">
          <mxGeometry x="90" y="760" width="120" height="80" as="geometry" />
        </mxCell>
        <mxCell id="vDryYQNX-0aa7Fd8NcH6-32" value="" style="edgeStyle=orthogonalEdgeStyle;rounded=0;orthogonalLoop=1;jettySize=auto;html=1;fontSize=14;" edge="1" parent="1" source="vDryYQNX-0aa7Fd8NcH6-30" target="vDryYQNX-0aa7Fd8NcH6-16">
          <mxGeometry relative="1" as="geometry" />
        </mxCell>
        <mxCell id="vDryYQNX-0aa7Fd8NcH6-30" value="&lt;span&gt;message=&quot;quit&quot;&lt;/span&gt;" style="rhombus;whiteSpace=wrap;html=1;fontSize=14;" vertex="1" parent="1">
          <mxGeometry x="85" y="390" width="130" height="80" as="geometry" />
        </mxCell>
        <mxCell id="vDryYQNX-0aa7Fd8NcH6-34" value="Gửi qua socket" style="rounded=0;whiteSpace=wrap;html=1;fontSize=14;" vertex="1" parent="1">
          <mxGeometry x="502.5" y="470" width="135" height="60" as="geometry" />
        </mxCell>
        <mxCell id="vDryYQNX-0aa7Fd8NcH6-36" value="Nhận dữ liệu" style="rounded=0;whiteSpace=wrap;html=1;fontSize=14;" vertex="1" parent="1">
          <mxGeometry x="90" y="190" width="120" height="60" as="geometry" />
        </mxCell>
      </root>
    </mxGraphModel>
  </diagram>
</mxfile>
